<?xml version="1.0" encoding="UTF-8"?>
<svg version="1.1" xmlns="http://www.w3.org/2000/svg" width="613" height="608">
<path d="M0 0 C1.60546875 2.8359375 1.60546875 2.8359375 3.1875 6.375 C3.71730469 7.53773437 4.24710938 8.70046875 4.79296875 9.8984375 C6 13 6 13 6 16 C-8.97144502 23.03592091 -23.99703475 29.93202396 -39.125 36.625 C-52.96660667 42.74887843 -66.7750348 48.94263021 -80.5625 55.1875 C-81.90698212 55.79637054 -81.90698212 55.79637054 -83.27862549 56.4175415 C-92.52235565 60.60448643 -101.76343202 64.79727649 -111 69 C-110.8141333 69.52094238 -110.6282666 70.04188477 -110.43676758 70.57861328 C-91.55694829 124.00064741 -93.01887515 172.99700251 -108 227 C-107.01996002 226.99333817 -106.03992004 226.98667633 -105.03018188 226.97981262 C-95.76216195 226.91880991 -86.49418314 226.87393575 -77.22600746 226.84456348 C-72.46194672 226.8289549 -67.69804899 226.80780513 -62.93408203 226.77368164 C-58.33048287 226.74091586 -53.72703981 226.72311089 -49.12333298 226.71536827 C-47.37318848 226.70985552 -45.62305184 226.69909096 -43.8729744 226.68280983 C-31.18962413 226.56958415 -19.58694389 226.61531231 -10 236 C9.32502197 257.77467265 18.76088288 291.66709681 24.25 319.625 C24.40114258 320.38619141 24.55228516 321.14738281 24.70800781 321.93164062 C27.56804065 337.51655996 28.38221524 353.18601057 28.3125 369 C28.31034485 369.88974518 28.3081897 370.77949036 28.30596924 371.69619751 C28.14810917 412.58058552 19.30692636 451.7701941 5.8125 490.25 C5.20680176 491.99047607 5.20680176 491.99047607 4.58886719 493.76611328 C0.61681087 504.78101843 -3.82136808 512.83639349 -14.125 518.8125 C-19.76821373 521.14339263 -25.09241678 521.1484645 -31.10708618 521.14717102 C-32.48617678 521.15268605 -32.48617678 521.15268605 -33.8931278 521.1583125 C-36.97514426 521.1693291 -40.05712697 521.17318975 -43.13916016 521.17700195 C-45.34862372 521.18326813 -47.55808624 521.18991507 -49.76754761 521.19691467 C-57.0247118 521.21793911 -64.28187616 521.22831557 -71.5390625 521.23828125 C-74.03910712 521.24232941 -76.53915162 521.24644635 -79.03919601 521.25063133 C-89.43977595 521.26749754 -99.84035432 521.2821321 -110.24094582 521.28938007 C-112.93748603 521.29128979 -115.63402623 521.29321015 -118.33056641 521.29516602 C-119.00073242 521.29564976 -119.67089844 521.2961335 -120.36137252 521.2966319 C-131.21097421 521.30492739 -142.06046549 521.33025808 -152.910019 521.36274669 C-164.0623184 521.3958682 -175.21457793 521.41350101 -186.36693037 521.41702431 C-192.62319972 521.41937299 -198.87929444 521.42831017 -205.13551712 521.45348549 C-211.02394848 521.47679826 -216.9120906 521.48098635 -222.80055618 521.47072411 C-224.95677656 521.47022942 -227.11301134 521.47652986 -229.26918793 521.49028015 C-255.20846606 521.64638852 -255.20846606 521.64638852 -264.46191406 512.83056641 C-267.56713458 509.1348611 -269.71242376 504.98169609 -271.875 500.6875 C-272.38820801 499.68275635 -272.90141602 498.6780127 -273.43017578 497.64282227 C-278.98890085 486.45880574 -283.21827924 474.88817861 -287 463 C-287.29100586 462.08959961 -287.58201172 461.17919922 -287.88183594 460.24121094 C-300.85923338 418.67991099 -303.57934196 370.85348959 -296 328 C-295.80664062 326.88592773 -295.61328125 325.77185547 -295.4140625 324.62402344 C-281.16507046 244.95720531 -281.16507046 244.95720531 -260 230 C-253.60353194 226.23737173 -247.93164291 225.85268021 -240.62963867 225.88647461 C-239.79985504 225.88632858 -238.97007141 225.88618256 -238.11514282 225.8860321 C-235.38272453 225.88672667 -232.65037508 225.89449771 -229.91796875 225.90234375 C-228.0193943 225.90420955 -226.12081937 225.90563269 -224.22224426 225.90663147 C-219.23278466 225.9104439 -214.24335432 225.9202633 -209.25390625 225.93133545 C-204.15950923 225.94157697 -199.06510748 225.94613496 -193.97070312 225.95117188 C-183.98045592 225.96188672 -173.9902304 225.97894784 -164 226 C-162.55292405 221.7675354 -161.11916475 217.53066866 -159.6875 213.29296875 C-159.08131836 211.52076965 -159.08131836 211.52076965 -158.46289062 209.71276855 C-147.82682611 178.12344078 -145.66682874 145.53703742 -153.61962891 113.01000977 C-154 111 -154 111 -154 107 C-155.51291626 107.70008179 -155.51291626 107.70008179 -157.05639648 108.41430664 C-176.31777326 117.32515759 -195.5880344 126.21416217 -214.92358398 134.96313477 C-215.55078842 135.24734787 -216.17799286 135.53156097 -216.82420349 135.8243866 C-218.65277348 136.65224679 -220.48262512 137.47727421 -222.3125 138.30224609 C-224.93837824 139.49766797 -227.53526084 140.74240242 -230.125 142.01416016 C-230.80473877 142.34394363 -231.48447754 142.67372711 -232.18481445 143.01350403 C-233.48771692 143.64767231 -234.78606061 144.29132332 -236.07885742 144.94584656 C-238.46109388 146.09909273 -240.53267228 146.97235394 -243.19140625 147.12963867 C-246.22024504 145.23784101 -247.31795199 142.08124489 -248.75 138.9375 C-249.06582031 138.27427734 -249.38164062 137.61105469 -249.70703125 136.92773438 C-250.48411278 135.29115358 -251.24375767 133.64631405 -252 132 C-253.06283203 132.48130371 -254.12566406 132.96260742 -255.22070312 133.45849609 C-265.14799007 137.95355525 -275.07708196 142.44460105 -285.00764465 146.93241882 C-290.88987694 149.59146187 -296.76941736 152.25633709 -302.64657593 154.92657471 C-306.28831457 156.58024136 -309.93181332 158.23000385 -313.57568359 159.87896729 C-315.3080718 160.66399112 -317.0396896 161.45071747 -318.77050781 162.23919678 C-321.19266117 163.34232609 -323.61747646 164.439392 -326.04296875 165.53515625 C-326.74854416 165.85828293 -327.45411957 166.18140961 -328.18107605 166.514328 C-332.39401785 168.4086855 -336.52869574 169.83336732 -341 171 C-342.17407021 168.73272667 -343.33939739 166.46165376 -344.5 164.1875 C-344.83386719 163.54490234 -345.16773438 162.90230469 -345.51171875 162.24023438 C-347.00239084 159.30452301 -348 157.33873483 -348 154 C-335.31511801 147.82897633 -322.46332892 142.05978436 -309.56518555 136.35302734 C-297.76462034 131.1311874 -285.9933698 125.84927108 -274.25 120.5 C-273.52278748 120.16877136 -272.79557495 119.83754272 -272.04632568 119.49627686 C-268.02990343 117.66632016 -264.01479589 115.83352883 -260 114 C-261.98 109.05 -263.96 104.1 -266 99 C-255.32308967 93.59880977 -244.58516858 88.43684668 -233.6875 83.5 C-232.1652217 82.80760571 -230.64308981 82.11488947 -229.12109375 81.421875 C-225.97500505 79.98965346 -222.82830635 78.55878528 -219.68115234 77.12890625 C-213.00336515 74.093627 -206.33339553 71.04127137 -199.66314697 67.98947144 C-197.49944491 66.99974609 -195.3354666 66.01062744 -193.17138672 65.02172852 C-186.42999479 61.94111479 -179.68948842 58.8586017 -172.95181274 55.76986694 C-169.82382223 54.33604182 -166.69537408 52.90321672 -163.56689453 51.47045898 C-162.0980804 50.79745134 -160.62948219 50.12397219 -159.16113281 49.44995117 C-155.12716352 47.59830086 -151.08898014 45.75648889 -147.04449463 43.92791748 C-145.62379642 43.2831172 -144.20493527 42.63426013 -142.78753662 41.98223877 C-140.58506393 40.96986325 -138.3772147 39.97014807 -136.16796875 38.97265625 C-135.15528679 38.50224159 -135.15528679 38.50224159 -134.12214661 38.02232361 C-129.34159283 35.88613572 -129.34159283 35.88613572 -126 37 C-124.65061396 39.17577663 -123.46148243 41.28612355 -122.3125 43.5625 C-121.99216797 44.17802734 -121.67183594 44.79355469 -121.34179688 45.42773438 C-120.55253629 46.9473555 -119.77512085 48.47311811 -119 50 C-111.14689083 47.65018202 -103.83883208 44.29861125 -96.42434692 40.85180664 C-92.5301919 39.0424646 -88.6281474 37.25028182 -84.7265625 35.45703125 C-83.92044022 35.08619415 -83.11431793 34.71535706 -82.2837677 34.33328247 C-72.43941237 29.81189101 -62.53827572 25.41938368 -52.62988281 21.04052734 C-51.14125837 20.38252696 -49.65265167 19.72448644 -48.1640625 19.06640625 C-47.42510742 18.73985046 -46.68615234 18.41329468 -45.92480469 18.07684326 C-41.07233577 15.92863664 -36.23234143 13.75419443 -31.39888 11.56356812 C-28.05377479 10.04795953 -24.70555556 8.53930015 -21.35714722 7.03100586 C-19.75347382 6.30626126 -18.15133601 5.57810845 -16.55081177 4.84643555 C-14.33849882 3.83547193 -12.1211584 2.83643815 -9.90234375 1.83984375 C-9.24475067 1.5355394 -8.58715759 1.23123505 -7.90963745 0.91770935 C-3.34161121 -1.1138704 -3.34161121 -1.1138704 0 0 Z M-201.78442383 245.0189209 C-206.70238158 245.05442064 -211.61898833 245.11245012 -216.53613281 245.20953369 C-217.99436391 245.23618806 -219.45272341 245.25664856 -220.91113281 245.27044678 C-231.82485424 245.38513743 -241.00054176 246.4851997 -249.25 254.1875 C-250.01828125 254.88230469 -250.7865625 255.57710938 -251.578125 256.29296875 C-257.20998834 262.58793858 -260.89825974 269.16148729 -263.4375 277.1875 C-263.72189941 278.06317627 -264.00629883 278.93885254 -264.29931641 279.84106445 C-266.86514259 288.02797399 -268.91143704 296.3401417 -270.875 304.6875 C-271.1733374 305.95166748 -271.4716748 307.21583496 -271.77905273 308.51831055 C-275.5121975 323.01484008 -275.5121975 323.01484008 -272 337 C-269.66437231 340.46577013 -267.85061167 342.42746644 -264 344 C-261.74003727 344.30298883 -261.74003727 344.30298883 -259.30740356 344.26742554 C-258.36819061 344.27595551 -257.42897766 344.28448547 -256.46130371 344.29327393 C-254.9260907 344.29191437 -254.9260907 344.29191437 -253.35986328 344.29052734 C-252.27651703 344.29724457 -251.19317078 344.30396179 -250.07699585 344.31088257 C-246.49138823 344.32989932 -242.90596742 344.33378862 -239.3203125 344.3359375 C-236.82933474 344.34236274 -234.33835775 344.34909089 -231.84738159 344.35610962 C-226.62365977 344.36809151 -221.40000413 344.37178949 -216.17626953 344.37060547 C-210.81221663 344.36953704 -205.4484516 344.38362477 -200.08447266 344.41162109 C-193.60888805 344.4449386 -187.13356227 344.45871752 -180.65789413 344.45738602 C-178.18993543 344.45974688 -175.7219741 344.4685976 -173.25406265 344.48405075 C-169.80204798 344.50364217 -166.35095524 344.4978988 -162.89892578 344.48583984 C-161.8794989 344.49707886 -160.86007202 344.50831787 -159.80975342 344.51989746 C-154.03138489 344.46859358 -150.52793748 343.9650796 -146 340 C-141.55193314 334.22953489 -140.87868993 330.31901999 -140.83886719 323.15527344 C-140.83390228 322.47503616 -140.82893738 321.79479889 -140.82382202 321.09394836 C-140.80924793 318.84908017 -140.80240562 316.60428269 -140.796875 314.359375 C-140.79111871 312.79241943 -140.78536104 311.22546386 -140.77960205 309.6585083 C-140.76910493 306.37340976 -140.76325415 303.0883356 -140.75976562 299.80322266 C-140.75428999 295.60919032 -140.73027664 291.4154841 -140.70179367 287.2215538 C-140.68309815 283.98375532 -140.67795798 280.74603422 -140.67642975 277.50818634 C-140.67341721 275.96293611 -140.6654363 274.41768679 -140.65224457 272.87248993 C-140.09293798 260.33294166 -140.09293798 260.33294166 -145.41668701 249.46185303 C-149.10227626 246.20448034 -152.16358721 244.87607252 -157.0078125 244.87060547 C-157.81679993 244.86751373 -158.62578735 244.864422 -159.45928955 244.86123657 C-160.77881622 244.86418228 -160.77881622 244.86418228 -162.125 244.8671875 C-163.50906036 244.86493668 -163.50906036 244.86493668 -164.92108154 244.86264038 C-167.94743093 244.86027274 -170.97366232 244.86656612 -174 244.875 C-175.54282654 244.87832336 -175.54282654 244.87832336 -177.11682129 244.88171387 C-185.33958612 244.90250508 -193.56185308 244.96304635 -201.78442383 245.0189209 Z M-125.25 250.3125 C-128.56896424 255.4094808 -129.25202884 260.06077529 -129.2746582 266.07177734 C-129.27976913 266.75230667 -129.28488007 267.432836 -129.29014587 268.13398743 C-129.30396629 270.36806201 -129.30309072 272.60182543 -129.30078125 274.8359375 C-129.30467264 276.40003573 -129.30900822 277.96413292 -129.31376648 279.52822876 C-129.32121268 282.80140615 -129.32094929 286.07447565 -129.31567383 289.34765625 C-129.30988458 293.52596682 -129.32680453 297.70383333 -129.3500185 301.88207054 C-129.36480754 305.11130318 -129.36562049 308.34043019 -129.36250877 311.5696907 C-129.3630195 313.1093496 -129.36821019 314.64901481 -129.37832069 316.18864059 C-129.92222341 328.72127538 -129.92222341 328.72127538 -124.54804993 339.53842163 C-120.81926918 342.77759876 -118.39139394 344.12181419 -113.5479126 344.14717102 C-112.14321716 344.15790398 -112.14321716 344.15790398 -110.71014404 344.16885376 C-109.1641452 344.17288712 -109.1641452 344.17288712 -107.58691406 344.17700195 C-105.96233276 344.18685875 -105.96233276 344.18685875 -104.30493164 344.19691467 C-100.70849545 344.21668055 -97.11210108 344.22831769 -93.515625 344.23828125 C-91.67613911 344.24439454 -91.67613911 344.24439454 -89.79949188 344.25063133 C-83.97851897 344.26935207 -78.15756256 344.2839144 -72.33656526 344.2922433 C-66.28903863 344.30103948 -60.24176302 344.32032609 -54.19433594 344.35668945 C-47.70810866 344.3950728 -41.22210794 344.41392569 -34.73577118 344.41844749 C-32.26222241 344.42332376 -29.78867743 344.43496711 -27.31519318 344.45348549 C-23.85341531 344.47779155 -20.39250085 344.476927 -16.93066406 344.4699707 C-15.39681061 344.48918579 -15.39681061 344.48918579 -13.83197021 344.50878906 C-7.88458687 344.46521444 -4.54033206 343.93773349 0 340 C4.3701735 335.03926252 4.97592814 330.40097513 5 324 C4.45519383 319.55401159 3.50794773 315.23680272 2.5 310.875 C2.09104492 309.05077515 2.09104492 309.05077515 1.67382812 307.18969727 C-3.30402669 282.98507935 -3.30402669 282.98507935 -14 261 C-14.38542969 260.41863281 -14.77085937 259.83726562 -15.16796875 259.23828125 C-20.00658973 252.68219753 -28.15917939 247.89152176 -36 246 C-41.03392262 245.47741139 -46.06828714 245.38839548 -51.125 245.3125 C-52.63371741 245.28139285 -54.14242497 245.24980465 -55.65112305 245.21777344 C-59.83758107 245.13603671 -64.02402715 245.08030133 -68.21099854 245.03253174 C-71.15423818 244.99820092 -74.09736528 244.95788908 -77.04052734 244.91748047 C-82.26708739 244.84920526 -87.49349253 244.80261941 -92.72039795 244.77084351 C-94.77467334 244.75699587 -96.82892356 244.73865567 -98.88311768 244.71572876 C-101.78290976 244.68590714 -104.68210291 244.6762149 -107.58203125 244.671875 C-108.44624191 244.65958359 -109.31045258 244.64729218 -110.20085144 244.6346283 C-116.41176544 244.65725028 -120.75987385 245.69764813 -125.25 250.3125 Z " fill="currentColor" transform="translate(585,87)"/>
<path d="M0 0 C1.35625893 6.00274098 1.55532515 12.10164177 1.92993164 18.22509766 C2.05997715 20.33408619 2.19853582 22.44239011 2.33789062 24.55078125 C2.92155763 33.7146352 3.1122281 42.8172477 3 52 C1.94594971 52.13462646 1.94594971 52.13462646 0.87060547 52.27197266 C-37.25827379 57.24961695 -71.13389578 68.65042548 -102 92 C-103.43859375 93.07121094 -103.43859375 93.07121094 -104.90625 94.1640625 C-123.67251505 108.80401024 -139.30646928 127.31887956 -151 148 C-151.53270508 148.92619141 -151.53270508 148.92619141 -152.07617188 149.87109375 C-160.92316807 165.35717028 -167.14799858 181.48850787 -171.375 198.8125 C-171.61371826 199.78896484 -171.85243652 200.76542969 -172.09838867 201.77148438 C-175.30221664 215.7037909 -176.38615483 229.49809361 -176.3125 243.75 C-176.30976578 244.85918793 -176.30976578 244.85918793 -176.30697632 245.99078369 C-176.25784344 257.88221979 -175.54367636 269.36067775 -173 281 C-172.75056641 282.19906982 -172.75056641 282.19906982 -172.49609375 283.42236328 C-163.27585851 326.91967675 -139.09310869 366.61674094 -104 394 C-103.44957031 394.4321582 -102.89914063 394.86431641 -102.33203125 395.30957031 C-76.76826169 415.22920424 -46.82550818 427.47353884 -15 433 C-14.31824707 433.11859375 -13.63649414 433.2371875 -12.93408203 433.359375 C9.29720601 437.02010168 31.83308268 435.09229319 54 432 C53.93941406 432.88171875 53.87882812 433.7634375 53.81640625 434.671875 C52.72676587 451.75971625 52.4304174 468.8857185 52 486 C39.76797039 487.87862468 27.79817041 488.36435403 15.4375 488.3125 C14.51146973 488.31034485 13.58543945 488.3081897 12.63134766 488.30596924 C-1.43900115 488.25348152 -15.1664673 487.78207989 -29 485 C-30.55146729 484.69400879 -30.55146729 484.69400879 -32.13427734 484.38183594 C-76.26117705 475.45115982 -117.28214511 455.52393943 -150.21484375 424.59765625 C-152.70292237 422.27707802 -155.23925981 420.03741665 -157.8125 417.8125 C-161.93219812 414.15709702 -165.46562777 410.2140592 -169 406 C-169.82242188 405.06542969 -170.64484375 404.13085938 -171.4921875 403.16796875 C-178.71969938 394.91148605 -185.01951522 386.19387959 -191 377 C-191.38365723 376.41589355 -191.76731445 375.83178711 -192.16259766 375.22998047 C-227.4198488 320.99882267 -237.77049 253.47570213 -224.53515625 190.6171875 C-214.39071986 145.40465664 -192.00072954 105.27354609 -160 72 C-159.29593018 71.26305908 -159.29593018 71.26305908 -158.57763672 70.51123047 C-152.12107438 63.78328898 -145.33417204 57.74894744 -138 52 C-137.02675781 51.20980469 -136.05351562 50.41960938 -135.05078125 49.60546875 C-99.01689998 20.89591467 -46.83768589 -2.57036081 0 0 Z " fill="currentColor" transform="translate(230,0)"/>
</svg>
